<svg xmlns="http://www.w3.org/2000/svg" width="466.8" height="667.15" viewBox="0 0 466.8 667.15"><path d="M11,637.73l.58-97.6L40.42,540q14.63-.09,25.5,6.12a42.54,42.54,0,0,1,16.72,17.11q5.85,10.92,5.77,25.14a53.37,53.37,0,0,1-6.07,25.34,43.86,43.86,0,0,1-16.92,17.46q-11,6.35-25.58,6.43Zm8.7-8.14L40,629.46a41.52,41.52,0,0,0,20.38-5.07,36.43,36.43,0,0,0,14.12-14.17q5.16-9.16,5.25-21.85t-5-21.58a35.33,35.33,0,0,0-13.95-13.93A40.85,40.85,0,0,0,40.5,548l-20.35.12Z" transform="translate(-9.51)" style="fill:#412a66"/><path d="M131.34,638.8A32.87,32.87,0,0,1,113.28,634,34.22,34.22,0,0,1,101,620.58a39.33,39.33,0,0,1-4.41-18.93,40,40,0,0,1,4.63-19,35.63,35.63,0,0,1,12.45-13.53,35.64,35.64,0,0,1,36.24-.22,34.43,34.43,0,0,1,12.36,13.3,39.41,39.41,0,0,1,4.41,19,40.05,40.05,0,0,1-4.64,19,35.47,35.47,0,0,1-12.51,13.53A33.84,33.84,0,0,1,131.34,638.8Zm0-7.67a24.62,24.62,0,0,0,13.86-4.06,27.81,27.81,0,0,0,9.44-10.79,33.26,33.26,0,0,0,3.47-15,32.44,32.44,0,0,0-3.3-15,26.92,26.92,0,0,0-9.31-10.6,24.12,24.12,0,0,0-13.81-3.89,24.69,24.69,0,0,0-13.86,4,27.81,27.81,0,0,0-9.43,10.8,33.16,33.16,0,0,0-3.48,15,32.4,32.4,0,0,0,3.3,15,26.88,26.88,0,0,0,9.31,10.61A24.2,24.2,0,0,0,131.38,631.13Z" transform="translate(-9.51)" style="fill:#412a66"/><path d="M178.3,636.7l.29-50.89q.06-9.48,5.21-14.88t14.2-5.46l10.9-.06,0,7.67-9.31,0q-6.12,0-9.33,3.62T187,586.87l-.3,49.78Z" transform="translate(-9.51)" style="fill:#412a66"/><path d="M262.83,565.77a31.86,31.86,0,0,1,10.93,7.32A33.51,33.51,0,0,1,281.14,585a44.69,44.69,0,0,1,2.56,15.95q-.06,11.57-4.64,19.82a32.28,32.28,0,0,1-28.82,17.19,28,28,0,0,1-10.9-2.09,29.84,29.84,0,0,1-9.21-5.94,27.75,27.75,0,0,1-6.26-8.68h-.27l-.27,45.87-8.37.06.38-66.51q.07-11.85,4.78-20.17a32.45,32.45,0,0,1,12.51-12.7,35.76,35.76,0,0,1,30.2-2Zm-25.92,8.81a26.16,26.16,0,0,0-9.5,10.09q-3.63,6.58-3.69,16.06t3.5,16.08a25.1,25.1,0,0,0,9.45,10.05,24.36,24.36,0,0,0,12.68,3.41,24,24,0,0,0,12.79-3.71,27.07,27.07,0,0,0,9.5-10.3,32.76,32.76,0,0,0,3.69-15.71q0-9.48-3.57-16.08a25.51,25.51,0,0,0-9.51-10.05A24.75,24.75,0,0,0,249.43,571,24.25,24.25,0,0,0,236.91,574.58Z" transform="translate(-9.51)" style="fill:#412a66"/><path d="M295.47,636l.59-101.78,8.38-.05-.6,101.78Z" transform="translate(-9.51)" style="fill:#412a66"/><path d="M353.85,635.62a44,44,0,0,1-19.53-4.06,31.49,31.49,0,0,1-13.49-12Q316,611.59,316,600.3a43.88,43.88,0,0,1,4-18.63,34.22,34.22,0,0,1,11.19-13.6,28.76,28.76,0,0,1,16.92-5.19q9.84-.06,16.73,4.43a28.44,28.44,0,0,1,10.44,12.2A40.86,40.86,0,0,1,378.81,597c0,1,0,2.07-.08,3.14a17.6,17.6,0,0,1-.35,2.86l-53.6.33A24.82,24.82,0,0,0,329.09,617a24.23,24.23,0,0,0,10.32,8.3A33.89,33.89,0,0,0,353.23,628l17-.11-.05,7.67Zm-29-38.72,45.48-.28a48.9,48.9,0,0,0-.42-6.27,29.33,29.33,0,0,0-1.82-7,22.69,22.69,0,0,0-4-6.46,18.69,18.69,0,0,0-6.55-4.77,23,23,0,0,0-9.57-1.75,19.84,19.84,0,0,0-9.65,2.36,22.68,22.68,0,0,0-7.15,6.18,30.37,30.37,0,0,0-4.58,8.53A31.75,31.75,0,0,0,324.82,596.9Z" transform="translate(-9.51)" style="fill:#412a66"/><path d="M395.31,551a5.89,5.89,0,0,1-4.38-1.86,6.14,6.14,0,0,1-1.84-4.52A6.28,6.28,0,0,1,391,540.1a6.07,6.07,0,0,1,4.4-1.91,5.66,5.66,0,0,1,4.31,1.86,6.16,6.16,0,0,1,1.77,4.52,6.38,6.38,0,0,1-1.82,4.54A5.83,5.83,0,0,1,395.31,551Zm-4.88,84.38.41-71.11,8.51,0-.41,71.1Z" transform="translate(-9.51)" style="fill:#412a66"/><path d="M414.23,635.25l.24-41.41a32.81,32.81,0,0,1,4.29-17A29.08,29.08,0,0,1,430.06,566a32.31,32.31,0,0,1,15.32-3.86,31.91,31.91,0,0,1,15.47,3.67A28.1,28.1,0,0,1,472,576.55q4.16,7,4.09,16.91l-.24,41.41-8.51,0,.24-41a25.6,25.6,0,0,0-3.05-13.15,21.21,21.21,0,0,0-8.26-8.18,22.19,22.19,0,0,0-10.89-2.79,22.48,22.48,0,0,0-10.86,2.86,22,22,0,0,0-8.36,8.27,26,26,0,0,0-3.27,13.27l-.24,41Z" transform="translate(-9.51)" style="fill:#412a66"/><path d="M13.39,509.32V489.7h40a8.56,8.56,0,0,0,4.81-1.41,10.53,10.53,0,0,0,3.41-3.64,9.74,9.74,0,0,0,1.27-4.91,10,10,0,0,0-1.27-5,10.56,10.56,0,0,0-3.41-3.65,8.63,8.63,0,0,0-4.81-1.4H38.92a32,32,0,0,1-14.84-3.43,26.36,26.36,0,0,1-10.63-9.89,29.22,29.22,0,0,1-3.94-15.56,31,31,0,0,1,3.74-15.56,27.31,27.31,0,0,1,10.16-10.3,27.87,27.87,0,0,1,14.18-3.71H78.91v19.62H40.13a8.09,8.09,0,0,0-4.41,1.26,8.4,8.4,0,0,0-3.08,3.37,10.07,10.07,0,0,0-1.07,4.62,9.65,9.65,0,0,0,1.07,4.56,8.52,8.52,0,0,0,3.08,3.29,8.09,8.09,0,0,0,4.41,1.26H55.24a32.38,32.38,0,0,1,15.58,3.58,25.74,25.74,0,0,1,10.29,9.95,29.38,29.38,0,0,1,3.68,14.93q0,10.1-3.81,17.17A26.73,26.73,0,0,1,70.75,505.6a27.77,27.77,0,0,1-14.17,3.72Z" transform="translate(-9.51)" style="fill:#412a66"/><path d="M129.72,511a27.14,27.14,0,0,1-16-4.9,32.62,32.62,0,0,1-10.83-13.25A44.15,44.15,0,0,1,99,474a41.32,41.32,0,0,1,4.55-19.56,34.48,34.48,0,0,1,12.9-13.67q8.36-5,19.73-5t19.58,5a33.15,33.15,0,0,1,12.44,13.6,42.18,42.18,0,0,1,4.35,19.28v35.74H152.18V497.83h-.53a26.43,26.43,0,0,1-4.82,6.79,20.38,20.38,0,0,1-7.15,4.7A26.83,26.83,0,0,1,129.72,511Zm6.15-18.78a14,14,0,0,0,8.22-2.46,15.52,15.52,0,0,0,5.42-6.79,24.36,24.36,0,0,0,1.87-9.68,23,23,0,0,0-1.87-9.39,15.63,15.63,0,0,0-5.42-6.65,14,14,0,0,0-8.22-2.46,14.62,14.62,0,0,0-8.43,2.46A15.47,15.47,0,0,0,122,463.9a22.85,22.85,0,0,0-1.87,9.39A24.19,24.19,0,0,0,122,483a15.36,15.36,0,0,0,5.48,6.79A14.62,14.62,0,0,0,135.87,492.22Z" transform="translate(-9.51)" style="fill:#412a66"/><path d="M193.23,509.32V466.85a32.11,32.11,0,0,1,3.94-15.91,28.33,28.33,0,0,1,11.3-11.15A35.69,35.69,0,0,1,226,435.73a35,35,0,0,1,9.36,1.19,34,34,0,0,1,7.82,3.22,25,25,0,0,1,6.09,4.84h.26a27.65,27.65,0,0,1,6.22-4.84,33.62,33.62,0,0,1,7.89-3.22,39.14,39.14,0,0,1,26.94,2.87,28.71,28.71,0,0,1,11.37,11.15,31.74,31.74,0,0,1,4,15.91v42.47H285.09V467.55a12.5,12.5,0,0,0-1.67-6.38,13.8,13.8,0,0,0-4.48-4.7,11.56,11.56,0,0,0-6.42-1.82,11.88,11.88,0,0,0-6.48,1.82,13,13,0,0,0-4.48,4.7,12.87,12.87,0,0,0-1.61,6.38v41.77H239.23V467.55a12.5,12.5,0,0,0-1.67-6.38,13.63,13.63,0,0,0-4.55-4.7,12.46,12.46,0,0,0-13,0,13,13,0,0,0-4.48,4.7,12.86,12.86,0,0,0-1.6,6.38v41.77Z" transform="translate(-9.51)" style="fill:#412a66"/><path d="M362.51,509.32a44,44,0,0,1-20.46-4.56,33.64,33.64,0,0,1-13.7-12.61,35.35,35.35,0,0,1-4.88-18.72q0-11.76,4.68-20.18a33.5,33.5,0,0,1,12.5-13A33.84,33.84,0,0,1,358,435.73q10.83,0,18.11,4.76a30.08,30.08,0,0,1,11,13,44.68,44.68,0,0,1,3.74,18.71c0,1.22-.07,2.64-.2,4.28a36.31,36.31,0,0,1-.47,3.85H345.26a13.3,13.3,0,0,0,3.08,6.17,13.48,13.48,0,0,0,5.75,3.72,23.92,23.92,0,0,0,7.75,1.19h21v17.94Zm-17.78-42.61H370.8a33.45,33.45,0,0,0-.8-4.35,11.12,11.12,0,0,0-1.67-3.71,14,14,0,0,0-2.61-2.81,11.85,11.85,0,0,0-3.41-1.89,12.63,12.63,0,0,0-4.34-.7,12.82,12.82,0,0,0-5.49,1.12,11.67,11.67,0,0,0-4,3,13.92,13.92,0,0,0-2.47,4.35A28.21,28.21,0,0,0,344.73,466.71Z" transform="translate(-9.51)" style="fill:#412a66"/><path d="M408.24,509.32V468a32.25,32.25,0,0,1,4.15-16.26,30.58,30.58,0,0,1,11.83-11.64,36.58,36.58,0,0,1,18.25-4.34q10.69,0,18.26,4.34a29.93,29.93,0,0,1,11.56,11.64,33.1,33.1,0,0,1,4,16.26v41.35H455.58V468.53a14.13,14.13,0,0,0-1.74-6.94,13.71,13.71,0,0,0-4.75-5,12.42,12.42,0,0,0-6.75-1.89,12.68,12.68,0,0,0-6.89,1.89,13.68,13.68,0,0,0-4.74,5,14.13,14.13,0,0,0-1.74,6.94v40.79Z" transform="translate(-9.51)" style="fill:#412a66"/><path d="M374.47,136.71l-95.79,94.36V376.18H470.25V231.07Zm-12,198.6H326.57V299.38h35.92Zm0-60.91H326.57V238.48h35.92Zm59.87,60.91H386.44V299.38h35.92Zm0-60.91H386.44V238.48h35.92Z" transform="translate(-9.51)" style="fill:#f9da54;stroke:#322153;stroke-linecap:round;stroke-linejoin:round;stroke-width:10px"/><path d="M111.05,136.71,15.26,231.07V376.18H206.84V231.07Zm-12,198.6H63.15V299.38H99.07Zm0-60.91H63.15V238.48H99.07Zm59.87,60.91H123V299.38h35.92Zm0-60.91H123V238.48h35.92Z" transform="translate(-9.51)" style="fill:#3dc7f4;stroke:#322153;stroke-linecap:round;stroke-linejoin:round;stroke-width:10px"/><rect x="168.31" y="35.84" width="148.9" height="148.9" transform="translate(139.58 -139.35) rotate(45)" style="fill:#35b882;stroke:#322153;stroke-linejoin:round;stroke-width:10px"/><polygon points="233.58 64.87 233.52 125.77 233.25 376.18 233.58 64.87" style="fill:none;stroke:#322153;stroke-linejoin:round;stroke-width:10px"/><path d="M189.21,107.81l53.88,53.88Z" transform="translate(-9.51)" style="fill:none;stroke:#322153;stroke-linejoin:round;stroke-width:10px"/><path d="M243.09,125.77,279,89.85Z" transform="translate(-9.51)" style="fill:none;stroke:#322153;stroke-linejoin:round;stroke-width:10px"/></svg>