<svg xmlns="http://www.w3.org/2000/svg" width="466.8" height="667.15" viewBox="0 0 466.8 667.15"><path d="M188.18,720.14l.57-97.6,28.86-.18q14.64-.09,25.5,6.12a42.57,42.57,0,0,1,16.73,17.11q5.85,10.92,5.77,25.13a53.38,53.38,0,0,1-6.07,25.35,43.81,43.81,0,0,1-16.93,17.46Q231.68,719.86,217,720Zm8.69-8.14,20.35-.13a41.63,41.63,0,0,0,20.38-5.07,36.4,36.4,0,0,0,14.11-14.17q5.17-9.17,5.25-21.85t-5-21.58A35.33,35.33,0,0,0,238,635.27a40.88,40.88,0,0,0-20.32-4.82l-20.35.12Z" transform="translate(-186.7 -82.41)" style="fill:#fff"/><path d="M308.53,721.21a32.9,32.9,0,0,1-18.06-4.84A34.44,34.44,0,0,1,278.18,703a39.45,39.45,0,0,1-4.41-18.93,40.05,40.05,0,0,1,4.64-19,35.53,35.53,0,0,1,12.44-13.53,35.66,35.66,0,0,1,36.25-.22,34.34,34.34,0,0,1,12.35,13.3,39.3,39.3,0,0,1,4.41,19,40,40,0,0,1-4.63,19,35.47,35.47,0,0,1-12.51,13.53A33.85,33.85,0,0,1,308.53,721.21Zm.05-7.67a24.56,24.56,0,0,0,13.85-4.06,27.65,27.65,0,0,0,9.44-10.79,33.13,33.13,0,0,0,3.48-15,32.69,32.69,0,0,0-3.3-15A27,27,0,0,0,322.73,658a24.13,24.13,0,0,0-13.8-3.88,24.67,24.67,0,0,0-13.86,4.05,27.83,27.83,0,0,0-9.44,10.8,33.13,33.13,0,0,0-3.48,15,32.53,32.53,0,0,0,3.31,15,26.8,26.8,0,0,0,9.31,10.61A24.17,24.17,0,0,0,308.58,713.54Z" transform="translate(-186.7 -82.41)" style="fill:#fff"/><path d="M355.49,719.11l.3-50.89q.06-9.48,5.21-14.88t14.19-5.46l10.91-.06,0,7.66-9.32.06q-6.11,0-9.33,3.61t-3.25,10.13l-.29,49.78Z" transform="translate(-186.7 -82.41)" style="fill:#fff"/><path d="M440,648.18A31.72,31.72,0,0,1,451,655.5a33.37,33.37,0,0,1,7.38,11.88,44.68,44.68,0,0,1,2.57,16q-.07,11.56-4.64,19.82a32.28,32.28,0,0,1-28.83,17.19,27.93,27.93,0,0,1-10.89-2.09,29.84,29.84,0,0,1-9.21-5.94,27.59,27.59,0,0,1-6.26-8.68h-.27l-.27,45.87-8.38,0,.39-66.5q.07-11.85,4.77-20.17a32.52,32.52,0,0,1,12.51-12.7,35.78,35.78,0,0,1,30.21-2ZM414.11,657a26.18,26.18,0,0,0-9.51,10.09q-3.63,6.58-3.68,16.06t3.5,16.08a25,25,0,0,0,9.45,10,24.36,24.36,0,0,0,12.68,3.41A24,24,0,0,0,439.34,709a27.22,27.22,0,0,0,9.5-10.3A32.65,32.65,0,0,0,452.52,683q.06-9.48-3.56-16.08a25.6,25.6,0,0,0-9.52-10,24.59,24.59,0,0,0-12.81-3.41A24.22,24.22,0,0,0,414.11,657Z" transform="translate(-186.7 -82.41)" style="fill:#fff"/><path d="M472.66,718.39l.6-101.78,8.38-.05L481,718.34Z" transform="translate(-186.7 -82.41)" style="fill:#fff"/><path d="M531.05,718A44,44,0,0,1,511.52,714,31.37,31.37,0,0,1,498,701.92q-4.87-7.92-4.81-19.21a43.92,43.92,0,0,1,4-18.64,34.12,34.12,0,0,1,11.19-13.59,28.72,28.72,0,0,1,16.92-5.19q9.84-.06,16.73,4.43a28.35,28.35,0,0,1,10.43,12.2A40.72,40.72,0,0,1,556,679.4c0,1,0,2.07-.08,3.14a19,19,0,0,1-.35,2.86l-53.6.32a24.77,24.77,0,0,0,4.31,13.64,24.17,24.17,0,0,0,10.32,8.3,33.86,33.86,0,0,0,13.82,2.71l17-.11,0,7.67Zm-29-38.72L547.5,679a47.29,47.29,0,0,0-.43-6.27,28.87,28.87,0,0,0-1.82-7,22.52,22.52,0,0,0-4-6.46,18.54,18.54,0,0,0-6.55-4.77,22.86,22.86,0,0,0-9.57-1.75,19.88,19.88,0,0,0-9.66,2.36,22.9,22.9,0,0,0-7.15,6.18,30.34,30.34,0,0,0-4.57,8.53A31.75,31.75,0,0,0,502,679.31Z" transform="translate(-186.7 -82.41)" style="fill:#fff"/><path d="M572.51,633.43a5.89,5.89,0,0,1-4.38-1.86,6.1,6.1,0,0,1-1.84-4.52,6.28,6.28,0,0,1,1.89-4.54,6.07,6.07,0,0,1,4.4-1.91,5.69,5.69,0,0,1,4.31,1.86,6.24,6.24,0,0,1,1.77,4.52,6.42,6.42,0,0,1-1.82,4.54A5.85,5.85,0,0,1,572.51,633.43Zm-4.89,84.38L568,646.7l8.51-.05-.42,71.1Z" transform="translate(-186.7 -82.41)" style="fill:#fff"/><path d="M591.43,717.66l.24-41.41a32.88,32.88,0,0,1,4.29-17,29.12,29.12,0,0,1,11.3-10.87,32.28,32.28,0,0,1,15.32-3.86,31.93,31.93,0,0,1,15.47,3.67A28.16,28.16,0,0,1,649.16,659q4.14,7,4.09,16.91L653,717.28l-8.51.05.24-41a25.6,25.6,0,0,0-3-13.15,21.24,21.24,0,0,0-8.27-8.18,22.16,22.16,0,0,0-10.89-2.79,22.47,22.47,0,0,0-10.85,2.86,21.82,21.82,0,0,0-8.36,8.27,26,26,0,0,0-3.27,13.27l-.24,41Z" transform="translate(-186.7 -82.41)" style="fill:#fff"/><path d="M190.58,591.73V572.1h40a8.56,8.56,0,0,0,4.82-1.4,10.53,10.53,0,0,0,3.41-3.64,9.87,9.87,0,0,0,1.27-4.91,10.09,10.09,0,0,0-1.27-5,10.56,10.56,0,0,0-3.41-3.65,8.64,8.64,0,0,0-4.82-1.4H216.12a31.87,31.87,0,0,1-14.84-3.44,26.27,26.27,0,0,1-10.63-9.88,29.22,29.22,0,0,1-4-15.56,31,31,0,0,1,3.75-15.56,27.16,27.16,0,0,1,10.16-10.3,27.84,27.84,0,0,1,14.17-3.71H256.1v19.62H217.33a8.15,8.15,0,0,0-4.42,1.26,8.45,8.45,0,0,0-3.07,3.37,9.94,9.94,0,0,0-1.07,4.62,9.56,9.56,0,0,0,1.07,4.56,8.57,8.57,0,0,0,3.07,3.29,8.15,8.15,0,0,0,4.42,1.26h15.11A32.31,32.31,0,0,1,248,535.17a25.7,25.7,0,0,1,10.3,10A29.38,29.38,0,0,1,262,560.05q0,10.1-3.82,17.17A26.78,26.78,0,0,1,248,588a27.78,27.78,0,0,1-14.18,3.72Z" transform="translate(-186.7 -82.41)" style="fill:#fff"/><path d="M306.91,593.41a27.11,27.11,0,0,1-16-4.91A32.59,32.59,0,0,1,280,575.26a44.16,44.16,0,0,1-3.88-18.86,41.19,41.19,0,0,1,4.55-19.55,34.41,34.41,0,0,1,12.9-13.67q8.36-5,19.72-5t19.59,5a33.22,33.22,0,0,1,12.44,13.6A42.3,42.3,0,0,1,349.7,556v35.75H329.38v-11.5h-.54A26.45,26.45,0,0,1,324,587a20.47,20.47,0,0,1-7.15,4.7A26.85,26.85,0,0,1,306.91,593.41Zm6.15-18.78a14.1,14.1,0,0,0,8.23-2.46,15.5,15.5,0,0,0,5.41-6.79,24.19,24.19,0,0,0,1.88-9.68,22.86,22.86,0,0,0-1.88-9.39,15.7,15.7,0,0,0-5.41-6.66,14.16,14.16,0,0,0-8.23-2.45,14.68,14.68,0,0,0-8.42,2.45,15.49,15.49,0,0,0-5.48,6.66,22.85,22.85,0,0,0-1.87,9.39,24.19,24.19,0,0,0,1.87,9.68,15.29,15.29,0,0,0,5.48,6.79A14.61,14.61,0,0,0,313.06,574.63Z" transform="translate(-186.7 -82.41)" style="fill:#fff"/><path d="M370.43,591.73V549.26a32.11,32.11,0,0,1,3.94-15.91,28.33,28.33,0,0,1,11.3-11.15,35.67,35.67,0,0,1,17.52-4.06,35.06,35.06,0,0,1,9.36,1.19,34,34,0,0,1,7.82,3.22,24.8,24.8,0,0,1,6.08,4.84h.27a27.43,27.43,0,0,1,6.22-4.84,33.62,33.62,0,0,1,7.89-3.22,39.14,39.14,0,0,1,26.94,2.87,28.84,28.84,0,0,1,11.37,11.15,31.74,31.74,0,0,1,4,15.91v42.47H462.29V550a12.5,12.5,0,0,0-1.67-6.38,13.89,13.89,0,0,0-4.48-4.7,11.56,11.56,0,0,0-6.42-1.82,11.91,11.91,0,0,0-6.49,1.82A12.87,12.87,0,0,0,437.15,550v41.77H416.42V550a12.41,12.41,0,0,0-1.67-6.38,13.6,13.6,0,0,0-4.54-4.7,12.46,12.46,0,0,0-13,0,13,13,0,0,0-4.48,4.7,12.87,12.87,0,0,0-1.61,6.38v41.77Z" transform="translate(-186.7 -82.41)" style="fill:#fff"/><path d="M539.71,591.73a43.94,43.94,0,0,1-20.46-4.56,33.73,33.73,0,0,1-13.71-12.61,35.47,35.47,0,0,1-4.88-18.72q0-11.77,4.68-20.18a33.45,33.45,0,0,1,12.51-13,33.81,33.81,0,0,1,17.31-4.55q10.83,0,18.12,4.76a30,30,0,0,1,11,13,44.52,44.52,0,0,1,3.75,18.71c0,1.22-.07,2.64-.2,4.28s-.29,2.92-.47,3.85H522.46a13,13,0,0,0,8.83,9.88,23.61,23.61,0,0,0,7.75,1.2h21v17.94Zm-17.79-42.61H548a35.22,35.22,0,0,0-.8-4.35,11.32,11.32,0,0,0-1.67-3.71,14,14,0,0,0-2.61-2.81,11.85,11.85,0,0,0-3.41-1.89,12.64,12.64,0,0,0-4.35-.7,12.81,12.81,0,0,0-5.48,1.12,11.67,11.67,0,0,0-4,3,13.73,13.73,0,0,0-2.47,4.35A27.4,27.4,0,0,0,521.92,549.12Z" transform="translate(-186.7 -82.41)" style="fill:#fff"/><path d="M585.44,591.73V550.38a32.34,32.34,0,0,1,4.14-16.26,30.67,30.67,0,0,1,11.84-11.64,36.56,36.56,0,0,1,18.25-4.34q10.7,0,18.25,4.34a30,30,0,0,1,11.57,11.64,33.21,33.21,0,0,1,4,16.26v41.35H632.77V550.94A14.23,14.23,0,0,0,631,544a13.72,13.72,0,0,0-4.75-5,12.45,12.45,0,0,0-6.75-1.89,12.68,12.68,0,0,0-6.89,1.89,13.63,13.63,0,0,0-4.75,5,14.12,14.12,0,0,0-1.73,6.94v40.79Z" transform="translate(-186.7 -82.41)" style="fill:#fff"/><path d="M551.66,219.12l-95.79,94.36V458.59H647.45V313.48Zm-12,198.59H503.77V381.79h35.92Zm0-60.9H503.77V320.89h35.92Zm59.87,60.9H563.64V381.79h35.92Zm0-60.9H563.64V320.89h35.92Z" transform="translate(-186.7 -82.41)" style="fill:none;stroke:#f7dd72;stroke-linecap:round;stroke-linejoin:round;stroke-width:10px"/><path d="M288.24,219.12l-95.78,94.36V458.59H384V313.48Zm-12,198.59H240.35V381.79h35.92Zm0-60.9H240.35V320.89h35.92Zm59.87,60.9H300.22V381.79h35.92Zm0-60.9H300.22V320.89h35.92Z" transform="translate(-186.7 -82.41)" style="fill:none;stroke:#3dc7f4;stroke-linecap:round;stroke-linejoin:round;stroke-width:10px"/><rect x="345.51" y="118.25" width="148.9" height="148.9" transform="translate(72.55 -322.92) rotate(45)" style="fill:none;stroke:#35b882;stroke-linejoin:round;stroke-width:10px"/><polygon points="233.58 64.87 233.52 125.77 233.25 376.18 233.58 64.87" style="fill:none;stroke:#35b882;stroke-linejoin:round;stroke-width:10px"/><path d="M366.13,189.94,420,243.82Z" transform="translate(-186.7 -82.41)" style="fill:none;stroke:#35b882;stroke-linejoin:round;stroke-width:10px"/><path d="M420.29,208.18l35.92-35.92Z" transform="translate(-186.7 -82.41)" style="fill:none;stroke:#35b882;stroke-linejoin:round;stroke-width:10px"/></svg>