<?xml version="1.0" standalone="no"?>
<!DOCTYPE svg PUBLIC "-//W3C//DTD SVG 20010904//EN"
 "http://www.w3.org/TR/2001/REC-SVG-20010904/DTD/svg10.dtd">
<svg version="1.0" xmlns="http://www.w3.org/2000/svg"
 width="932.000000pt" height="932.000000pt" viewBox="0 0 932.000000 932.000000"
 preserveAspectRatio="xMidYMid meet">
<metadata>
Created by potrace 1.14, written by Peter Selinger 2001-2017
</metadata>
<g transform="translate(0.000000,932.000000) scale(0.100000,-0.100000)"
fill="#000000" stroke="none">
<path d="M4625 8441 c-11 -5 -501 -490 -1088 -1078 -1030 -1031 -1069 -1071
-1074 -1112 l-6 -43 1057 -1057 1056 -1056 0 -1607 0 -1606 31 -26 c42 -36 89
-35 131 3 l33 29 3 1609 2 1608 1050 1050 c1041 1042 1050 1051 1050 1090 0
39 -9 48 -1078 1118 -952 952 -1081 1078 -1112 1082 -19 3 -44 1 -55 -4z
m1018 -1219 l977 -977 -925 -925 -925 -925 6 750 6 750 354 355 c219 221 355
365 359 381 19 79 -76 155 -148 118 -12 -6 -145 -133 -294 -282 l-273 -272 0
483 c0 530 -1 536 -59 566 -38 20 -66 20 -100 0 -59 -35 -56 15 -59 -914 l-3
-854 -458 458 c-431 431 -460 458 -499 463 -38 5 -45 2 -77 -30 -29 -29 -35
-42 -35 -78 l0 -43 535 -536 535 -535 0 -390 0 -390 -925 925 -925 925 977
977 c538 538 978 978 978 978 0 0 440 -440 978 -978z"/>
<path d="M1997 5807 c-28 -12 -1962 -1909 -1972 -1935 -3 -7 -5 -683 -5 -1502
l0 -1488 31 -26 31 -26 1952 0 1952 0 23 21 c12 11 26 32 32 46 5 15 9 599 9
1484 0 1233 -2 1464 -14 1487 -12 23 -1581 1577 -1866 1849 -100 95 -128 109
-173 90z m1221 -1406 l622 -614 0 -1378 0 -1379 -1810 0 -1810 0 0 1378 0
1378 222 220 c123 121 531 523 906 893 l684 674 281 -280 c155 -153 562 -555
905 -892z"/>
<path d="M1017 3769 c-45 -26 -47 -46 -47 -449 0 -413 1 -424 55 -448 19 -9
134 -12 414 -12 376 0 389 1 414 20 15 12 31 38 37 58 6 22 10 179 10 390 0
378 -3 402 -51 436 -21 14 -69 16 -419 16 -250 0 -401 -4 -413 -11z m673 -449
l0 -260 -257 2 -258 3 -3 258 -2 257 260 0 260 0 0 -260z"/>
<path d="M2199 3751 l-29 -29 0 -401 0 -400 24 -28 24 -28 389 -3 c213 -1 399
0 411 3 13 3 35 18 48 32 l24 26 0 399 0 400 -29 29 -29 29 -402 0 -402 0 -29
-29z m691 -431 l0 -260 -260 0 -260 0 0 260 0 260 260 0 260 0 0 -260z"/>
<path d="M1034 2556 c-65 -29 -64 -19 -64 -454 l0 -394 34 -34 34 -34 388 0
c368 0 391 1 421 20 51 31 54 58 51 470 l-3 370 -33 32 -32 33 -383 2 c-307 2
-388 0 -413 -11z m656 -456 l0 -260 -257 2 -258 3 -3 258 -2 257 260 0 260 0
0 -260z"/>
<path d="M2243 2563 c-12 -2 -34 -18 -48 -34 l-25 -31 0 -396 c0 -361 2 -399
18 -418 34 -43 45 -44 442 -44 413 0 424 1 448 55 9 19 12 135 12 415 l0 390
-29 32 -29 33 -384 1 c-211 1 -393 0 -405 -3z m647 -463 l0 -260 -260 0 -260
0 0 260 0 260 260 0 260 0 0 -260z"/>
<path d="M7265 5806 c-45 -20 -1961 -1911 -1974 -1949 -14 -39 -15 -2924 -2
-2960 6 -14 20 -35 32 -46 l23 -21 1953 0 1953 0 32 29 33 29 3 1462 c1 945
-1 1475 -8 1499 -8 31 -171 195 -978 990 -533 524 -975 957 -983 961 -31 17
-55 18 -84 6z m592 -780 c301 -297 707 -697 901 -890 l352 -350 0 -1378 0
-1378 -1815 0 -1815 0 0 1375 0 1375 373 368 c884 875 1442 1422 1449 1419 4
-1 254 -245 555 -541z"/>
<path d="M6291 3766 c-50 -27 -50 -34 -51 -449 l0 -389 34 -34 34 -34 392 0
392 0 34 34 34 34 0 386 c0 414 -1 426 -51 452 -39 20 -782 20 -818 0z m669
-446 l0 -260 -260 0 -260 0 0 260 0 260 260 0 260 0 0 -260z"/>
<path d="M7469 3751 l-29 -29 0 -392 c0 -427 1 -436 57 -459 21 -8 136 -11
416 -9 l387 3 27 28 28 27 3 388 c3 345 1 390 -13 418 -9 18 -28 37 -41 43
-17 7 -149 11 -415 11 l-391 0 -29 -29z m689 -428 l-3 -258 -257 -3 -258 -2 0
260 0 260 260 0 260 0 -2 -257z"/>
<path d="M6287 2549 c-45 -26 -47 -46 -47 -453 l0 -386 29 -32 29 -33 402 0
402 0 29 33 29 32 0 396 0 396 -29 29 -29 29 -399 0 c-252 0 -404 -4 -416 -11z
m673 -449 l0 -260 -257 2 -258 3 -3 258 -2 257 260 0 260 0 0 -260z"/>
<path d="M7469 2531 l-29 -29 0 -396 0 -396 29 -32 29 -33 386 -3 c333 -2 390
-1 416 13 59 31 60 37 60 450 0 400 -2 419 -49 445 -13 6 -163 10 -416 10
l-397 0 -29 -29z m689 -428 l-3 -258 -257 -3 -258 -2 0 260 0 260 260 0 260 0
-2 -257z"/>
</g>
</svg>
